# xmcd
#
# Track frame offsets:
#	187
#	15487
#	30372
#	45607
#	58805
#	71287
#	82387
#	101220
#	118082
#	131575
#
# Disc length: 1987 seconds
#
# Revision: 3
# Processed by: cddbd v1.5.1PL2 Copyright (c) Steve Scherf et al.
# Submitted via: dBpowerAMP V4.0
#
DISCID=8607c10a
DTITLE=David Lee Murphy - Out With A Bang
DYEAR=1994
DGENRE=Country
TTITLE0=Can't Turn It Off
TTITLE1=Party Crowd
TTITLE2=Mama 'N Them
TTITLE3=High Weeds And Rust
TTITLE4=Fish Ain't Bitin'
TTITLE5=Out With A Bang
TTITLE6=Greatest Show On Earth
TTITLE7=Dust On The Bottle
TTITLE8=Just Once
TTITLE9=Why Can't People Just Get Along
EXTD=
EXTT0=
EXTT1=
EXTT2=
EXTT3=
EXTT4=
EXTT5=
EXTT6=
EXTT7=
EXTT8=
EXTT9=
PLAYORDER=
